<svg width="512" height="440" viewBox="0 0 512 440" fill="none" xmlns="http://www.w3.org/2000/svg">
<path fill-rule="evenodd" clip-rule="evenodd" d="M179.181 3.66784C139.202 12.2122 115.417 31.0182 95.9673 69.4652C86.7552 87.6753 5.20453 308.699 2.11072 323.84C-4.01834 353.845 3.26068 378.285 23.1647 394.523C39.3938 407.761 43.5959 408.438 109.65 408.438C141.778 408.438 168.065 408.912 168.065 409.487C168.065 410.065 166.643 417.044 164.904 424.996C163.165 432.948 161.952 439.698 162.206 439.995C162.682 440.549 247.675 395.279 248.947 393.794C249.334 393.342 236.176 377.252 219.706 358.039C203.237 338.827 189.391 323.54 188.938 324.067C188.486 324.596 186.53 332.253 184.59 341.084L181.065 357.139L134.87 356.995C80.0142 356.824 69.8618 355.296 61.9029 346.023C52.4288 334.982 52.7309 333.837 97.0556 213.143C140.582 94.6232 142.137 90.7155 150.927 77.7306C159.448 65.1417 174.561 56.4911 192.73 53.8002C201.394 52.5168 243.684 52.0704 317.592 52.4808C438.327 53.1504 437.408 53.0766 445.801 62.8774C449.515 67.2153 450.162 69.4166 450.162 77.727C450.162 90.8577 449.125 94.058 412.417 194.243C382.507 275.871 361.458 329.379 359.35 329.134C358.851 329.076 346.563 312.272 332.042 291.792L305.644 254.555L314.489 250.814C332.198 243.326 353.705 225.483 362.705 210.814C370.175 198.635 394.706 129.139 395.804 117.051C396.826 105.795 393.688 96.9433 387.514 93.6584C384.856 92.2436 355.227 91.6478 287.846 91.6532C195.376 91.6586 191.783 91.7846 187.011 95.1829C184.29 97.1197 180.356 101.774 178.27 105.525C175.244 110.969 121.123 259.972 109.264 295.511C105.844 305.76 105.574 320.334 108.622 323.288C110.191 324.807 109.156 329.022 133.997 328.328C158.838 329.022 158.148 329.716 160.218 325.552C163.668 320.693 172.823 299.588 180.3 278.539C182.998 270.949 186.864 262.647 188.893 260.089C192.48 255.572 193.288 254.763 211.97 254.763C211.97 254.763 225.77 254.763 231.018 255.442C235.431 256.845 285.914 333.668 285.914 333.668C315.642 376.159 337.914 407.571 341.695 411.608C351.487 412.365 360.613 406.529 371.235 400.442C385.033 392.533 396.456 381.406 405.155 364.087C413.242 347.987 504.589 97.9009 508.681 80.6573C518.718 38.3638 506.059 13.2814 469.746 3.51845C456.546 -0.0310583 451.789 -0.144452 325.568 0.0625427C204.858 0.262338 193.849 0.532314 179.181 3.66784ZM317.446 151.738C318.924 156.214 319.353 161.484 313.404 177.034C310.941 185.712 300.776 193.527 293.34 196.052C289.632 197.311 274.157 197.827 250.536 197.483C250.536 197.483 212.66 199.242 207.14 198.548C199.549 197.483 200.929 193.69 202.309 187.444C203.689 181.892 211.148 149.905 220.119 149.905H231.159L272.836 149.245C307.454 149.245 314.784 146.498 317.446 151.738Z" fill="black"/>
</svg>
